<?xml version="1.0" standalone="no"?>
<!DOCTYPE svg PUBLIC "-//W3C//DTD SVG 20010904//EN"
 "http://www.w3.org/TR/2001/REC-SVG-20010904/DTD/svg10.dtd">
<svg version="1.0" xmlns="http://www.w3.org/2000/svg"
 width="700.000000pt" height="700.000000pt" viewBox="0 0 700.000000 700.000000"
 preserveAspectRatio="xMidYMid meet">
<metadata>
Created by potrace 1.11, written by Peter Selinger 2001-2013
</metadata>
<g transform="translate(0.000000,700.000000) scale(0.100000,-0.100000)"
fill="#000000" stroke="none">
<path d="M1415 6022 c3 -19 1 -21 -16 -12 -14 8 -19 7 -19 -2 0 -10 -2 -10 -9
0 -7 11 -9 11 -14 -2 -4 -9 -12 -16 -19 -16 -9 0 -8 3 2 10 8 5 10 10 4 10 -6
0 -23 -11 -38 -25 -14 -13 -26 -21 -26 -17 0 4 -11 -6 -26 -21 -14 -15 -22
-33 -19 -40 4 -6 -1 -3 -11 8 -12 15 -15 16 -11 4 3 -10 -4 -26 -19 -40 -18
-17 -21 -25 -12 -36 8 -10 7 -12 -5 -8 -10 5 -15 1 -14 -12 1 -11 -4 -17 -13
-15 -10 1 -9 -2 4 -13 11 -8 14 -15 7 -15 -7 0 -9 -5 -5 -12 6 -10 5 -10 -7
-1 -13 11 -15 4 -15 -47 1 -49 -1 -56 -13 -47 -12 10 -13 8 -9 -10 4 -13 2
-23 -3 -23 -5 0 -9 -5 -9 -11 0 -6 6 -7 13 -2 6 4 4 -6 -7 -21 -10 -16 -14
-26 -9 -23 5 4 10 0 10 -8 0 -8 -4 -12 -9 -9 -4 3 -8 -2 -8 -11 0 -10 -5 -13
-12 -9 -8 5 -7 0 2 -11 12 -14 12 -19 2 -23 -10 -3 -10 -7 0 -20 10 -12 10
-14 1 -8 -9 5 -13 -1 -14 -21 -1 -15 -1 -32 0 -36 1 -5 -3 -6 -9 -2 -5 3 -10
-1 -10 -10 0 -10 5 -13 13 -9 6 4 5 -1 -4 -12 -9 -10 -14 -25 -11 -33 3 -8 0
-11 -7 -7 -7 5 -9 1 -5 -8 3 -9 11 -13 18 -9 7 4 7 1 -1 -9 -7 -8 -9 -19 -5
-23 4 -5 1 -5 -6 -1 -7 4 -9 12 -6 18 4 6 2 8 -4 5 -5 -4 -9 -27 -8 -51 1 -25
-2 -42 -6 -40 -4 3 -8 -4 -8 -16 0 -12 -4 -19 -8 -16 -5 3 -8 -9 -7 -27 0 -18
-4 -35 -10 -39 -6 -5 -6 -8 2 -8 7 0 10 -7 7 -15 -4 -8 -11 -12 -18 -8 -6 4
-4 -2 4 -12 12 -15 12 -17 1 -10 -11 6 -13 4 -8 -8 3 -10 2 -17 -4 -17 -6 0
-7 -5 -3 -11 3 -6 0 -15 -7 -20 -12 -7 -11 -9 1 -9 13 0 13 -2 1 -9 -13 -8
-13 -12 0 -27 13 -15 12 -16 -11 -11 -14 4 -19 4 -12 1 6 -3 12 -12 12 -20 0
-9 -3 -13 -7 -11 -5 3 -9 -6 -9 -19 -1 -15 2 -22 10 -17 6 3 3 -2 -6 -13 -12
-14 -14 -24 -8 -30 7 -7 4 -17 -9 -31 -14 -15 -17 -23 -8 -32 7 -7 7 -11 1
-11 -6 0 -11 -16 -11 -35 0 -20 -6 -41 -13 -48 -10 -10 -11 -9 -5 3 5 8 4 12
0 7 -5 -4 -10 -15 -11 -25 -1 -9 -5 -27 -8 -40 -3 -12 -1 -20 4 -17 5 3 5 -9
0 -27 -6 -17 -15 -35 -22 -40 -10 -6 -9 -8 2 -8 13 0 13 -1 0 -10 -8 -5 -11
-10 -6 -10 5 0 2 -8 -5 -17 -8 -9 -9 -14 -3 -10 6 3 11 -1 11 -9 0 -8 -6 -13
-13 -10 -8 3 -11 0 -7 -10 3 -8 -1 -22 -8 -31 -12 -14 -12 -16 0 -8 11 6 13 4
8 -9 -4 -10 -7 -20 -7 -22 0 -3 -5 -2 -11 2 -8 4 -8 1 -2 -12 5 -11 8 -25 7
-31 -1 -7 -2 -17 -3 -23 0 -5 -7 -10 -13 -10 -8 0 -13 -13 -12 -37 1 -51 -6
-73 -24 -73 -13 0 -12 -3 4 -16 10 -8 14 -13 8 -10 -16 8 -25 -19 -12 -32 8
-8 7 -13 -5 -18 -14 -5 -15 -10 -5 -27 10 -19 9 -20 -3 -10 -12 10 -14 1 -15
-55 -1 -39 4 -70 10 -74 8 -5 7 -8 -1 -8 -7 0 -13 -7 -13 -15 0 -8 5 -15 11
-15 8 0 8 -4 0 -14 -9 -11 -6 -18 16 -36 15 -12 21 -19 13 -15 -10 4 -9 2 2
-8 10 -8 15 -17 11 -20 -3 -4 4 -7 16 -7 14 0 20 -4 15 -12 -4 -6 -3 -8 3 -5
6 4 18 0 29 -7 13 -10 26 -11 42 -5 15 6 21 5 17 -1 -4 -6 8 -10 29 -10 19 0
37 -6 39 -12 3 -7 6 -4 6 6 1 20 1 20 16 0 15 -19 15 -19 8 1 -6 20 -6 20 16
1 22 -20 22 -20 15 0 -7 16 -6 17 8 6 13 -10 18 -10 24 -1 5 8 3 9 -6 4 -9 -5
-11 -4 -6 4 6 9 11 9 21 1 10 -8 15 -8 20 1 6 8 10 7 16 -2 6 -10 9 -10 9 -2
0 6 9 10 19 8 14 -2 18 1 15 10 -4 10 0 13 15 10 12 -2 21 0 21 6 0 5 5 9 11
9 5 0 7 -5 3 -12 -5 -7 -3 -8 5 -4 7 5 10 11 7 14 -9 8 45 62 62 62 12 0 12 3
2 15 -10 13 -9 15 11 15 17 0 20 3 11 9 -11 7 -11 9 1 14 10 3 13 13 10 25 -2
11 1 23 8 27 8 5 10 4 5 -3 -4 -7 -5 -12 -2 -12 3 0 10 10 17 21 9 17 8 20 -2
14 -8 -6 -10 -4 -3 6 4 8 10 23 11 33 2 11 8 25 14 32 6 7 7 19 3 25 -4 7 -3
9 3 6 6 -4 14 4 17 17 3 13 9 32 13 42 5 13 3 15 -8 10 -8 -4 -6 -1 3 7 14 11
15 16 5 27 -9 10 -9 11 0 6 8 -4 11 2 10 21 -2 23 2 28 18 26 11 -1 15 0 9 3
-15 6 -6 83 11 100 7 7 10 25 7 40 -3 16 -1 25 5 21 5 -3 10 0 10 8 0 8 -5 11
-10 8 -6 -4 -3 4 6 18 22 30 21 40 0 32 -15 -5 -14 -3 2 10 11 8 23 13 27 11
3 -2 5 4 3 13 -2 10 -4 18 -6 18 -1 0 -3 10 -4 23 -1 12 2 22 7 22 6 0 7 -8 3
-17 -5 -14 -4 -15 6 -6 10 10 9 17 -6 33 -15 17 -16 20 -3 15 9 -4 19 -1 24 6
5 8 3 10 -7 4 -11 -7 -12 -6 -2 7 7 8 10 18 6 22 -4 4 -1 11 7 16 9 6 10 10 3
10 -6 0 -9 9 -6 20 3 11 9 18 13 15 5 -3 12 0 16 6 4 7 3 9 -3 6 -6 -4 -13 0
-17 8 -3 8 0 14 7 12 7 -1 12 9 11 26 -1 15 4 27 10 27 6 0 4 5 -4 10 -10 6
-11 10 -2 10 6 0 12 5 12 11 0 5 -6 7 -12 3 -9 -6 -9 -3 0 9 8 9 11 21 7 26
-4 7 1 8 11 4 14 -5 16 -3 11 12 -4 9 -2 25 5 33 7 9 8 13 2 9 -6 -3 -11 0
-11 8 0 8 5 11 10 8 6 -4 8 3 4 16 -4 16 -2 20 6 12 9 -7 12 -2 14 16 1 19 -1
22 -8 12 -6 -9 -9 -10 -9 -2 0 6 4 14 9 18 6 3 8 14 6 25 -2 12 1 17 9 14 7
-3 12 5 13 18 2 18 0 19 -7 8 -7 -11 -9 -10 -7 8 1 14 6 21 14 17 11 -3 11 0
2 16 -9 17 -8 20 2 14 8 -6 11 -4 6 7 -3 9 0 21 6 27 13 13 19 43 6 36 -5 -4
-6 1 -3 9 3 9 10 14 14 11 4 -2 6 9 4 26 -3 21 0 28 8 23 7 -5 8 -3 2 7 -13
21 -14 40 -1 32 7 -4 8 0 3 12 -5 14 -4 16 7 6 12 -9 13 -7 10 11 -3 17 3 26
22 35 14 6 23 8 21 4 -3 -4 5 -13 17 -21 20 -12 21 -11 9 2 -11 13 -9 16 13
16 15 0 22 -5 18 -12 -3 -6 4 -2 17 9 l23 20 -8 -25 -8 -25 22 25 c13 14 20
21 18 15 -3 -5 2 -17 11 -25 14 -13 15 -12 10 2 -5 11 0 16 18 16 15 0 21 -5
17 -12 -3 -6 4 -2 17 9 20 17 22 17 17 3 -3 -10 -1 -20 5 -24 6 -4 8 -3 5 3
-4 6 1 17 10 24 9 8 14 9 11 4 -4 -6 3 -17 15 -25 20 -12 21 -11 9 2 -11 13
-9 16 13 16 15 0 22 -5 18 -12 -3 -6 4 -2 17 9 l23 20 -8 -25 -8 -25 22 25
c13 14 20 21 18 15 -3 -5 2 -17 11 -25 14 -13 15 -12 10 2 -5 11 0 16 18 16
15 0 21 -5 17 -12 -3 -6 4 -2 17 9 13 11 20 14 16 8 -4 -7 -3 -13 1 -13 5 0
15 6 22 13 8 6 11 7 8 2 -3 -6 3 -17 15 -24 11 -7 17 -8 14 -3 -3 6 8 15 25
21 23 8 29 8 26 -2 -2 -6 -10 -11 -16 -9 -7 1 -10 -2 -6 -8 5 -8 11 -7 22 1
11 10 16 10 22 0 6 -10 10 -9 14 4 5 10 3 14 -5 9 -7 -4 -8 -3 -4 5 6 9 11 9
21 1 9 -8 15 -8 20 0 3 5 11 10 17 10 6 0 3 -10 -8 -21 -19 -22 -19 -22 1 -11
40 21 87 32 82 19 -2 -6 -10 -11 -16 -9 -7 1 -10 -2 -6 -8 5 -8 11 -7 22 1 11
10 16 10 22 0 6 -10 10 -9 14 4 5 10 3 14 -5 9 -7 -4 -8 -3 -4 5 6 9 11 9 21
1 9 -8 15 -8 20 0 3 5 11 10 17 10 6 0 3 -10 -8 -22 -13 -16 -14 -19 -2 -10
24 19 72 26 62 10 -4 -7 2 -4 14 6 23 20 30 10 10 -14 -7 -8 0 -4 16 10 16 14
27 21 24 15 -3 -5 1 -17 10 -25 14 -13 15 -12 10 2 -5 11 0 16 18 16 13 0 21
-4 19 -9 -3 -4 0 -11 6 -15 7 -4 9 -3 6 3 -4 6 1 17 10 24 15 12 16 12 9 -5
-7 -20 -7 -20 15 0 12 10 19 13 15 7 -4 -7 -2 -13 4 -13 6 0 8 -5 4 -12 -4 -7
-3 -8 5 -4 6 4 9 11 6 15 -2 5 6 9 19 9 18 0 23 -5 19 -17 -4 -14 -3 -14 6 -1
9 13 13 13 33 1 21 -13 22 -13 9 3 -8 9 -11 19 -9 22 3 3 16 -9 28 -25 15 -22
17 -29 6 -25 -11 4 -13 0 -9 -15 3 -14 1 -21 -8 -21 -11 0 -11 -2 1 -10 8 -5
10 -10 4 -10 -7 0 -9 -11 -6 -26 4 -21 2 -25 -9 -19 -11 7 -11 5 1 -10 8 -10
10 -16 4 -12 -7 4 -15 0 -18 -9 -10 -25 -7 -27 12 -13 9 7 6 1 -7 -14 -15 -16
-19 -27 -12 -27 10 0 10 -6 -2 -24 -12 -17 -13 -26 -4 -35 8 -8 8 -11 -2 -11
-11 0 -11 -3 -1 -15 11 -13 10 -14 -6 -8 -17 6 -18 5 -4 -12 13 -17 13 -18 0
-13 -12 4 -15 -4 -14 -49 1 -37 -3 -53 -11 -50 -7 3 -11 -6 -10 -27 1 -17 -2
-36 -7 -43 -5 -7 -5 -14 2 -18 7 -4 3 -17 -12 -38 -12 -17 -17 -27 -10 -23 7
4 12 2 12 -3 0 -6 -5 -11 -11 -11 -7 0 -10 -12 -7 -30 3 -16 1 -30 -3 -30 -4
0 -5 -10 -1 -22 4 -16 2 -19 -9 -13 -11 7 -11 5 1 -10 14 -17 13 -18 -3 -12
-11 4 -16 3 -12 -3 3 -6 0 -10 -7 -10 -10 0 -9 -3 2 -9 8 -6 18 -7 24 -4 5 3
6 1 2 -6 -4 -6 -12 -8 -18 -5 -7 5 -9 2 -5 -8 3 -9 0 -21 -6 -28 -9 -10 -9
-11 2 -5 15 8 10 -5 -13 -34 -13 -17 -17 -43 -5 -35 5 3 9 0 9 -5 0 -6 -4 -11
-10 -11 -5 0 -10 -5 -10 -11 0 -5 6 -7 13 -3 9 6 9 5 1 -7 -7 -8 -14 -34 -17
-58 -3 -25 -12 -50 -21 -57 -13 -9 -14 -13 -4 -16 10 -4 10 -9 -2 -23 -8 -10
-10 -16 -4 -12 7 4 11 -4 10 -22 -1 -23 -4 -27 -14 -19 -9 8 -11 7 -6 -7 5
-13 4 -16 -4 -11 -7 4 -12 2 -12 -3 0 -6 5 -11 10 -11 6 0 10 -5 10 -11 0 -5
-4 -8 -8 -5 -4 2 -7 -7 -7 -22 1 -15 -5 -34 -13 -44 -10 -12 -11 -18 -1 -24 7
-4 10 -3 5 4 -3 6 -2 13 3 16 5 4 8 -1 7 -10 -1 -8 -8 -19 -15 -24 -11 -6 -11
-9 0 -13 9 -4 8 -6 -5 -6 -16 -1 -17 -3 -5 -18 10 -12 10 -14 1 -9 -9 5 -11
-2 -6 -29 4 -26 2 -35 -5 -30 -14 8 -10 -17 4 -27 6 -5 3 -8 -7 -8 -9 0 -20
-5 -24 -12 -5 -7 -3 -8 7 -3 12 8 12 6 0 -8 -7 -9 -9 -17 -4 -17 5 0 10 -7 10
-15 0 -8 -4 -12 -9 -9 -5 3 -7 -6 -4 -20 3 -14 1 -26 -3 -26 -5 0 -7 -11 -6
-25 2 -16 -1 -23 -8 -18 -6 4 -8 0 -4 -10 4 -10 1 -17 -6 -17 -8 0 -6 -4 3
-10 11 -7 11 -10 2 -10 -7 0 -10 -5 -6 -11 3 -6 0 -15 -7 -20 -9 -5 -10 -9 -2
-9 15 0 10 -33 -7 -38 -8 -3 -10 0 -5 8 5 9 4 11 -4 6 -9 -6 -9 -11 -1 -21 8
-10 8 -15 0 -20 -8 -5 -8 -10 0 -20 8 -10 8 -15 0 -20 -8 -5 -8 -10 0 -20 13
-16 -3 -30 -22 -19 -7 4 -5 -2 5 -13 17 -19 14 -33 -7 -33 -6 0 -4 5 4 10 9 6
10 10 3 10 -15 0 -26 -17 -14 -24 4 -3 5 -23 1 -45 -4 -25 -3 -44 4 -52 8 -9
8 -10 -1 -5 -7 4 -13 2 -13 -4 0 -6 -4 -8 -10 -5 -6 4 -7 -1 -3 -11 5 -13 3
-15 -8 -9 -11 7 -12 6 -3 -6 14 -17 14 -49 1 -49 -5 0 -3 -8 4 -17 10 -11 10
-14 2 -9 -9 5 -13 -1 -13 -19 0 -17 -4 -24 -12 -19 -8 5 -9 2 -5 -9 3 -9 2
-19 -4 -23 -7 -4 -7 -10 0 -18 5 -6 6 -17 2 -25 -5 -7 -7 -23 -5 -37 1 -13 -2
-24 -7 -24 -5 0 -9 5 -9 12 0 6 -3 9 -6 6 -3 -4 -1 -15 5 -27 8 -14 8 -22 0
-26 -6 -4 -8 -14 -5 -22 3 -8 1 -11 -4 -8 -6 3 -10 2 -10 -4 0 -5 6 -12 13
-15 10 -5 10 -7 0 -12 -7 -3 -13 -12 -13 -20 0 -10 5 -12 13 -8 8 5 8 2 -2 -9
-15 -19 -26 -23 -15 -5 4 7 3 8 -5 4 -9 -6 -9 -11 1 -24 11 -13 11 -14 -1 -7
-11 6 -13 4 -8 -8 3 -9 2 -19 -4 -23 -7 -4 -6 -10 1 -19 8 -10 7 -14 -2 -18
-11 -4 -10 -6 0 -6 7 -1 11 -5 7 -11 -3 -5 -13 -6 -23 -3 -13 4 -13 2 3 -10
19 -15 19 -16 2 -23 -14 -5 -17 -13 -12 -31 3 -14 2 -22 -3 -19 -5 3 -9 -1 -9
-9 0 -8 5 -15 10 -15 5 0 3 -8 -4 -17 -12 -14 -12 -16 1 -9 8 4 6 0 -5 -8 -15
-13 -20 -31 -22 -83 -3 -71 -9 -86 -23 -63 -12 19 -12 13 -1 -28 6 -21 6 -30
0 -26 -6 3 -7 -6 -4 -24 3 -20 -1 -34 -13 -45 -13 -12 -17 -30 -16 -67 0 -27
-3 -50 -8 -50 -5 0 -4 -9 2 -19 7 -14 7 -22 -2 -27 -7 -5 -8 -3 -3 6 5 9 4 11
-4 6 -9 -6 -9 -11 0 -22 9 -11 8 -15 -3 -19 -9 -4 -14 -16 -12 -33 1 -14 -3
-33 -9 -41 -10 -12 -9 -13 3 -6 13 8 13 6 1 -8 -7 -9 -18 -14 -24 -10 -6 3 -7
1 -3 -6 4 -6 11 -9 16 -6 5 3 12 0 16 -6 4 -7 3 -9 -3 -6 -6 4 -16 0 -23 -8
-8 -10 -9 -15 -1 -15 7 0 8 -8 1 -26 -6 -14 -8 -30 -4 -35 3 -5 0 -9 -6 -9 -7
0 -7 -7 1 -22 11 -20 11 -22 -3 -10 -13 10 -18 10 -24 1 -4 -8 -3 -9 4 -5 15
9 15 5 2 -28 -6 -18 -6 -26 1 -26 6 0 7 -5 4 -10 -4 -6 -11 -8 -16 -4 -6 3 -5
-4 3 -16 11 -18 11 -23 -4 -34 -18 -14 -25 -32 -9 -21 5 3 13 0 17 -6 4 -7 3
-9 -3 -6 -6 4 -17 -1 -24 -10 -12 -14 -12 -16 1 -8 13 7 13 6 2 -7 -10 -13
-10 -17 0 -21 11 -4 11 -6 0 -6 -10 -1 -10 -6 -2 -21 9 -16 8 -22 -5 -26 -8
-3 -12 -11 -8 -17 4 -6 0 -8 -9 -4 -13 4 -14 0 -8 -29 4 -19 4 -34 0 -34 -5 0
-6 -10 -2 -22 3 -14 1 -19 -6 -14 -8 5 -10 1 -5 -10 4 -10 2 -15 -4 -11 -6 4
-9 -6 -8 -24 1 -16 -2 -32 -7 -35 -4 -3 -3 -14 2 -25 8 -13 7 -19 0 -19 -6 0
-8 -6 -4 -12 4 -7 4 -10 -1 -6 -4 4 -17 3 -28 -3 -14 -8 -18 -8 -13 0 8 12
-95 8 -115 -5 -8 -4 -9 -3 -5 4 4 7 3 12 -3 12 -5 0 -13 -5 -16 -10 -4 -6 -12
-7 -18 -3 -7 4 -20 9 -31 10 -16 3 -17 1 -5 -14 13 -16 12 -17 -3 -5 -23 18
-72 27 -62 11 5 -8 3 -9 -5 -4 -20 12 -122 14 -114 2 3 -6 1 -7 -6 -3 -15 10
-101 15 -96 6 2 -4 -2 -7 -10 -7 -8 0 -12 3 -10 7 2 4 -3 7 -11 7 -8 0 -13 -6
-10 -14 4 -9 -1 -9 -19 3 -24 15 -25 15 -25 -2 0 -16 -2 -17 -10 -4 -12 19
-42 19 -56 1 -9 -11 -12 -12 -19 -1 -6 9 -4 11 6 5 8 -5 11 -4 6 0 -14 16 -47
12 -47 -4 0 -13 -2 -14 -9 -2 -13 20 -51 22 -52 2 0 -12 -3 -11 -9 4 -5 11 -9
14 -9 8 -1 -9 -8 -10 -26 -3 -18 7 -23 6 -19 -3 2 -7 -4 -13 -16 -14 -11 -1
-20 3 -20 8 0 6 5 7 12 3 7 -4 8 -3 4 4 -4 6 -13 9 -21 6 -8 -4 -12 -11 -8
-18 4 -6 -2 -4 -12 4 -17 13 -18 13 -13 -1 5 -12 1 -16 -15 -15 -12 0 -25 6
-29 11 -5 6 -8 5 -8 -3 0 -7 -4 -10 -10 -7 -5 3 -10 0 -10 -7 0 -9 -3 -9 -10
2 -7 11 -10 11 -10 2 0 -18 -42 -32 -58 -19 -7 6 -12 6 -11 1 4 -24 -2 -36
-17 -30 -11 4 -18 -1 -21 -14 -3 -11 -10 -17 -16 -13 -7 4 -8 0 -4 -11 5 -14
3 -17 -8 -12 -10 4 -15 -1 -15 -14 0 -11 -5 -20 -11 -20 -5 0 -7 -4 -4 -10 3
-5 1 -10 -6 -10 -8 0 -9 -3 0 -14 9 -10 7 -17 -6 -27 -16 -13 -17 -12 -4 3 7
10 9 18 3 18 -15 0 -22 -26 -10 -38 6 -6 6 -12 -3 -17 -8 -6 -10 -4 -4 5 5 9
4 11 -4 6 -9 -6 -9 -11 1 -24 10 -12 10 -14 0 -8 -8 5 -12 -1 -12 -22 0 -16
-3 -32 -7 -36 -11 -10 -14 -46 -4 -46 4 0 7 -10 7 -23 -1 -12 2 -28 7 -35 7
-9 6 -11 -6 -7 -8 4 -18 1 -23 -6 -4 -7 -3 -10 4 -5 6 3 16 -3 22 -14 8 -15 8
-20 -2 -20 -9 0 -9 -3 2 -9 8 -6 18 -7 22 -5 4 3 5 -2 2 -10 -4 -11 2 -19 19
-25 14 -5 29 -16 33 -23 6 -10 4 -10 -9 1 -10 8 -20 11 -24 7 -3 -3 -1 -6 6
-6 7 0 9 -5 5 -13 -4 -6 -4 -9 1 -5 4 4 17 2 29 -4 11 -7 28 -14 36 -16 29 -7
2535 -8 2556 -1 12 4 26 3 33 -4 8 -8 11 -8 11 2 0 8 6 11 16 7 12 -5 15 -2
10 11 -6 14 -4 15 5 6 7 -7 20 -9 33 -3 11 4 25 8 31 8 5 0 12 9 16 19 6 13 8
14 8 3 1 -12 3 -13 10 -1 5 8 14 10 22 5 12 -6 12 -5 0 9 -12 15 -11 17 7 17
16 0 20 4 15 18 -6 15 -5 15 10 3 15 -12 17 -12 10 4 -5 15 -3 17 12 11 18 -7
18 -6 1 13 -18 20 -18 20 4 16 13 -2 20 -2 16 2 -3 3 0 13 7 21 9 13 9 14 0 8
-9 -5 -11 -2 -7 8 3 9 12 12 22 8 15 -5 16 -4 2 13 -14 17 -13 18 4 12 16 -6
17 -5 6 8 -10 12 -10 15 0 15 9 0 9 4 -1 17 -8 9 -9 14 -3 10 15 -9 28 23 15
36 -11 11 -3 37 11 37 6 0 5 -6 -2 -15 -7 -9 -8 -15 -2 -15 14 0 23 28 12 35
-6 4 -10 11 -10 16 0 6 5 7 11 4 6 -4 5 3 -3 14 -11 18 -11 23 2 31 12 8 12
10 1 10 -9 0 -11 7 -8 21 3 12 0 22 -9 26 -8 3 -12 9 -9 13 3 5 -2 15 -10 23
-8 9 -15 18 -15 22 0 18 -32 36 -52 30 -23 -7 -23 -7 -3 9 20 15 19 15 -4 11
-14 -3 -31 1 -40 8 -12 9 -13 9 -7 0 4 -7 2 -13 -3 -13 -6 0 -11 7 -11 15 0 8
-5 15 -11 15 -5 0 -8 -4 -4 -9 3 -5 1 -13 -5 -16 -6 -4 -9 -1 -8 6 2 6 -3 14
-11 17 -10 3 -12 0 -8 -11 4 -11 2 -14 -8 -10 -8 3 -12 9 -9 14 3 5 2 9 -3 10
-4 0 -18 2 -30 3 -12 1 -25 -4 -27 -11 -5 -11 -10 -11 -31 3 -24 15 -25 15
-25 -2 0 -15 -2 -16 -9 -5 -12 19 -49 21 -55 4 -5 -11 -10 -11 -31 3 -24 15
-25 15 -25 -2 0 -15 -2 -16 -9 -5 -13 20 -51 22 -51 2 0 -13 -2 -14 -9 -2 -13
20 -54 23 -46 3 5 -12 3 -13 -10 -2 -17 14 -187 19 -219 7 -10 -4 -15 -3 -11
3 8 13 -1 13 -27 -1 -15 -8 -18 -8 -14 0 8 12 -95 8 -115 -5 -8 -4 -9 -3 -5 4
4 7 1 12 -9 12 -9 0 -13 -5 -9 -11 4 -8 1 -8 -12 -2 -11 5 -36 8 -56 8 -23 -1
-39 3 -42 12 -3 8 -2 12 3 8 5 -3 8 11 7 30 -3 30 -1 33 12 23 13 -11 14 -10
4 9 -10 17 -9 22 4 27 12 5 13 10 5 19 -8 10 -7 17 2 27 10 10 9 11 -3 5 -13
-8 -13 -6 -2 7 9 12 10 18 2 23 -8 5 -5 13 9 26 22 21 28 35 11 24 -6 -3 -7 1
-4 9 3 9 10 13 15 10 5 -3 5 6 -1 20 -6 17 -6 26 3 30 8 3 7 5 -2 5 -11 1 -10
5 5 17 10 8 14 13 8 10 -19 -9 -7 47 12 61 10 7 13 13 7 13 -14 0 -8 49 8 64
9 8 10 8 4 -3 -6 -10 -4 -12 4 -6 9 5 10 10 2 18 -17 17 -13 27 7 20 16 -7 16
-6 0 11 -14 14 -16 22 -7 37 6 12 8 27 5 35 -3 8 -1 14 4 14 5 0 7 7 4 15 -4
8 1 17 10 21 12 5 13 11 6 24 -7 13 -7 21 1 25 6 4 8 13 5 21 -3 8 0 14 7 14
8 0 8 3 -1 9 -11 7 -9 13 9 29 18 17 20 24 10 36 -7 8 -8 17 -3 20 6 3 9 23 8
45 -2 28 1 38 11 34 9 -4 13 5 13 26 0 18 5 31 13 31 9 0 8 3 -2 9 -8 6 -10
14 -5 22 12 20 14 40 3 33 -5 -3 -9 0 -9 5 0 6 7 11 15 11 9 0 12 6 8 17 -4
11 -3 14 5 9 7 -4 12 -2 12 3 0 6 -6 11 -12 11 -10 0 -10 2 -1 8 6 4 11 25 10
47 -1 25 2 40 11 41 25 3 26 4 14 16 -14 14 -16 32 -3 24 11 -7 9 13 -2 32 -5
7 -3 12 3 12 7 0 9 8 5 22 -6 17 -4 20 11 14 10 -4 15 -4 12 0 -4 4 -2 16 4
28 l11 21 -24 -20 -24 -20 15 20 c8 11 20 23 25 27 6 5 5 8 -4 8 -11 0 -11 3
0 17 12 15 12 16 -1 8 -12 -6 -13 -5 -3 5 9 10 9 18 1 34 -10 19 -9 19 4 8 13
-10 18 -10 24 -1 4 7 3 9 -4 5 -7 -4 -10 2 -9 14 1 12 7 18 14 16 7 -3 10 1 6
9 -3 8 -10 12 -17 9 -6 -3 -4 0 4 8 16 14 20 55 8 74 -5 8 2 11 22 9 16 -1 27
1 24 6 -7 12 3 11 28 -2 13 -7 18 -7 14 -1 -3 6 -2 13 4 17 5 3 10 2 10 -3 0
-6 7 -13 16 -16 8 -3 12 -2 9 4 -8 13 1 13 27 -1 13 -7 18 -7 14 -1 -3 6 -2
13 4 17 5 3 10 2 10 -3 0 -6 7 -13 16 -16 8 -3 12 -2 9 4 -8 13 1 13 27 -1 13
-7 18 -7 14 -1 -3 6 -2 13 4 17 5 3 10 2 10 -3 0 -6 7 -13 16 -16 8 -3 12 -2
9 4 -8 13 1 13 27 -1 13 -7 18 -7 14 -1 -3 6 -2 13 4 17 5 3 10 2 10 -3 0 -6
7 -13 16 -16 8 -3 12 -2 9 4 -8 13 1 13 27 -1 13 -7 18 -7 14 -1 -3 6 -2 13 4
17 5 3 10 2 10 -3 0 -6 7 -13 16 -16 8 -3 12 -2 9 4 -8 13 1 13 27 -1 13 -7
18 -7 14 -1 -3 6 -2 13 4 17 5 3 10 2 10 -3 0 -6 7 -13 16 -16 8 -3 12 -2 9 4
-8 13 1 13 27 -1 13 -7 18 -7 14 -1 -3 6 -2 13 4 17 5 3 10 2 10 -2 0 -5 11
-10 25 -11 14 -1 25 4 25 11 0 8 3 7 9 -2 5 -8 19 -15 30 -16 11 -1 18 2 15 7
-3 4 0 8 5 8 6 0 11 -4 11 -8 0 -5 18 -7 40 -6 22 1 38 -1 36 -5 -2 -3 7 -12
22 -19 19 -9 23 -9 14 0 -7 7 -12 17 -12 23 0 6 3 7 8 0 12 -17 47 -41 38 -27
-6 10 -2 10 18 0 14 -6 26 -15 26 -21 0 -5 6 -7 13 -4 7 3 19 -3 25 -14 8 -12
18 -16 29 -12 12 5 14 3 8 -7 -6 -9 -4 -12 6 -8 8 3 25 -3 38 -13 13 -11 20
-19 15 -19 -4 0 -15 7 -25 16 -13 12 -19 12 -25 3 -4 -7 -3 -10 3 -6 6 4 16 0
23 -8 7 -8 18 -15 26 -15 7 0 16 -5 20 -12 4 -7 3 -8 -4 -4 -8 5 -10 2 -6 -8
3 -9 9 -15 12 -14 22 2 32 -4 32 -23 0 -11 4 -17 10 -14 6 3 7 -1 4 -9 -4 -10
-1 -16 9 -16 8 0 18 -7 21 -16 6 -15 4 -15 -11 -3 -16 13 -17 12 -4 -4 8 -10
20 -16 28 -13 10 4 11 1 3 -14 -7 -13 -7 -21 2 -26 7 -4 8 -3 4 4 -4 7 -2 12
3 12 6 0 11 -9 11 -20 0 -11 5 -20 10 -20 6 0 10 -7 10 -16 0 -9 5 -12 12 -8
8 5 9 2 5 -9 -7 -19 1 -49 12 -43 4 3 13 -5 21 -17 12 -21 12 -21 -6 -7 -10 8
-7 1 9 -16 15 -17 27 -34 27 -39 0 -5 -7 0 -16 11 -14 16 -14 15 0 -9 9 -15
14 -33 9 -40 -5 -9 -3 -9 9 0 18 15 29 7 21 -14 -4 -9 2 -22 13 -31 16 -12 16
-14 2 -9 -10 4 -18 2 -18 -3 0 -6 5 -10 11 -10 5 0 7 -6 3 -12 -5 -8 -1 -8 12
2 10 8 16 11 12 6 -4 -5 -3 -18 3 -29 9 -15 8 -18 -3 -12 -7 3 -5 0 5 -8 9 -8
17 -22 17 -31 0 -9 5 -16 11 -16 8 0 7 -6 -2 -17 -10 -11 -10 -14 -1 -9 7 4
12 1 12 -9 0 -9 4 -13 10 -10 14 9 12 -8 -3 -24 -10 -11 -9 -12 2 -6 11 6 13
4 8 -9 -5 -13 -3 -17 7 -13 8 3 16 -2 19 -14 3 -12 1 -17 -6 -13 -7 4 -2 -3
11 -15 12 -12 22 -27 22 -33 0 -7 -7 -3 -16 8 -14 18 -15 18 -4 -4 6 -13 17
-25 25 -28 8 -3 12 -11 9 -18 -6 -15 21 -68 29 -59 7 6 11 -11 8 -34 -1 -7 3
-13 8 -13 6 0 7 -7 4 -17 -4 -10 -2 -14 4 -10 13 8 31 -30 28 -61 -1 -16 3
-21 12 -18 8 3 11 2 8 -3 -3 -5 -1 -13 5 -16 8 -5 7 -12 -2 -23 -8 -10 -9 -13
-1 -9 7 5 13 -1 15 -15 2 -13 9 -22 15 -21 6 1 9 -6 6 -17 -3 -11 0 -20 6 -20
6 0 11 -11 11 -25 0 -14 5 -25 11 -25 5 0 8 -4 5 -9 -3 -5 1 -12 10 -15 9 -3
14 -13 10 -21 -3 -8 3 -22 12 -31 9 -10 17 -29 17 -43 0 -18 5 -26 17 -25 16
2 18 -22 2 -48 -4 -6 -3 -8 2 -5 6 3 16 2 24 -4 10 -6 11 -9 3 -9 -7 0 -13 -5
-13 -11 0 -5 4 -8 9 -5 11 7 19 -12 16 -42 -2 -21 -1 -21 19 -5 12 10 15 11 9
3 -17 -18 -17 -33 0 -24 7 5 6 0 -3 -11 -12 -15 -12 -17 -1 -10 11 6 13 2 9
-19 -5 -23 -3 -24 10 -14 13 11 15 10 10 -10 -5 -16 -2 -22 10 -22 15 0 15 -2
2 -10 -13 -9 -13 -10 0 -10 13 0 13 -1 0 -10 -12 -8 -10 -10 10 -10 20 0 22
-2 10 -10 -9 -6 -10 -10 -3 -10 7 0 10 -9 8 -21 -3 -15 0 -19 10 -15 8 3 14 2
13 -2 -1 -4 3 -17 10 -29 10 -18 10 -22 0 -19 -7 1 -10 1 -5 -1 4 -3 5 -8 2
-13 -3 -4 8 -19 24 -33 17 -14 27 -27 24 -31 -3 -3 -1 -12 5 -19 7 -8 9 -17 5
-21 -4 -4 0 -4 10 0 13 5 16 2 10 -12 -4 -11 -3 -15 4 -11 7 5 9 0 6 -13 -4
-14 0 -20 11 -20 9 0 16 -8 16 -17 1 -17 30 -65 30 -49 0 4 7 1 15 -8 8 -8 15
-20 15 -26 0 -7 7 -9 17 -6 10 4 14 4 11 0 -14 -13 24 -39 64 -43 4 -1 14 -9
23 -18 15 -15 50 -17 324 -17 324 -1 384 1 376 14 -3 4 2 11 11 14 10 4 13 2
8 -6 -5 -8 -2 -9 12 -4 10 5 25 9 31 9 10 0 10 4 1 14 -9 11 -7 12 7 7 14 -6
16 -4 10 6 -5 8 -4 11 2 7 13 -8 63 34 63 52 0 7 6 11 14 8 10 -4 13 0 11 14
-3 12 3 23 13 27 9 4 17 18 17 32 1 19 5 24 20 22 20 -3 20 -3 0 12 -16 12
-17 15 -4 16 11 0 15 9 14 30 -1 22 2 29 11 26 8 -3 11 0 7 9 -3 8 -10 12 -17
8 -8 -5 -8 -3 0 8 17 23 35 71 24 64 -13 -8 -13 1 0 26 9 16 7 21 -12 29 -13
5 -17 9 -8 10 9 0 11 3 5 8 -10 7 -17 27 -18 49 0 9 -4 10 -13 2 -10 -8 -12
-6 -9 9 2 12 -3 23 -11 26 -8 3 -12 1 -9 -4 3 -5 -1 -7 -9 -4 -8 3 -13 11 -10
18 3 7 -2 13 -10 13 -8 0 -13 -4 -10 -9 3 -4 -2 -5 -10 -2 -9 3 -13 10 -10 15
3 5 -4 9 -15 9 -12 0 -21 -6 -21 -12 0 -9 -3 -9 -9 1 -5 8 -18 12 -30 8 -14
-3 -26 2 -37 16 -11 15 -15 17 -11 5 4 -10 1 -20 -5 -24 -7 -4 -8 -3 -4 4 4 7
2 12 -4 12 -6 0 -8 5 -5 10 3 6 1 10 -4 10 -6 0 -11 -7 -11 -15 0 -18 -16 -20
-26 -3 -5 7 -3 8 6 3 9 -5 11 -4 6 4 -6 9 -14 8 -33 -4 -14 -10 -23 -13 -19
-7 3 5 -1 13 -10 16 -12 5 -15 2 -10 -11 5 -15 4 -15 -9 1 -15 20 -15 20 -15
0 0 -14 -3 -16 -9 -6 -12 20 -61 23 -61 4 0 -13 -3 -12 -15 4 -15 19 -15 19
-9 -1 4 -17 3 -16 -8 3 -11 18 -16 20 -27 10 -10 -11 -10 -8 -2 14 9 23 8 26
-8 23 -14 -2 -17 3 -16 23 1 15 -6 33 -14 40 -9 8 -11 11 -4 8 6 -4 15 -2 18
4 4 6 3 10 -2 9 -4 -1 -14 -1 -22 0 -11 1 -11 4 0 18 10 11 10 14 2 9 -8 -4
-13 -1 -13 8 0 9 -5 16 -12 16 -9 0 -9 3 -1 11 13 13 -1 47 -25 62 -7 5 -10
12 -7 18 4 5 1 9 -4 9 -6 0 -11 12 -11 26 0 14 -4 23 -9 20 -5 -3 -12 1 -15
10 -4 10 -2 13 7 9 6 -4 3 1 -7 9 -11 9 -16 16 -12 16 5 0 3 6 -3 14 -9 11 -9
15 1 20 7 3 3 4 -10 2 -18 -3 -21 -1 -13 8 6 7 8 16 4 20 -4 4 -1 12 7 17 13
9 13 10 -1 6 -9 -3 -22 -1 -30 4 -8 5 -9 9 -3 9 15 0 13 28 -3 34 -7 3 -13 12
-13 21 0 8 -6 15 -12 15 -8 0 -9 3 -3 8 6 4 11 14 13 22 3 10 -3 9 -19 -5
l-22 -20 14 23 c11 18 11 24 2 30 -7 5 -11 18 -8 31 3 16 -1 24 -14 28 -11 3
-18 12 -16 21 3 24 -16 63 -28 55 -6 -4 -7 4 -3 21 5 19 3 26 -8 26 -7 0 -20
8 -27 18 -13 16 -13 16 5 2 18 -14 19 -14 9 5 -6 11 -9 28 -8 38 2 9 -1 15 -6
11 -5 -3 -7 -11 -3 -17 3 -7 -2 -3 -10 7 -18 23 -20 36 -6 36 6 0 1 9 -10 20
-11 11 -20 29 -20 40 0 11 -6 20 -12 20 -9 0 -8 4 2 10 13 8 12 10 -3 10 -10
0 -15 4 -12 10 3 5 1 10 -6 10 -8 0 -8 4 1 15 7 9 10 18 6 22 -3 3 -6 0 -6 -8
-1 -10 -4 -9 -11 4 -6 9 -15 14 -21 11 -7 -4 -8 -2 -4 5 4 6 13 8 19 4 8 -5 8
-2 0 9 -7 8 -9 19 -5 23 4 5 1 4 -7 0 -11 -6 -13 -4 -8 8 4 11 -1 20 -14 28
-14 7 -17 14 -10 23 7 8 6 16 -1 26 -8 12 -9 11 -4 -4 6 -16 4 -17 -9 -6 -12
10 -13 16 -3 28 11 13 11 14 0 8 -9 -5 -13 -3 -11 5 3 29 -1 40 -13 33 -8 -5
-7 0 2 11 14 17 13 18 -4 12 -15 -6 -17 -4 -13 13 3 11 1 20 -5 20 -5 0 -6 5
-2 12 5 7 2 9 -8 6 -8 -4 -15 0 -15 8 0 7 4 11 9 8 4 -3 8 0 8 5 0 6 -8 11
-18 11 -10 0 -19 7 -19 15 0 12 3 12 16 3 9 -7 7 -2 -4 12 -36 43 -42 49 -51
42 -5 -4 -3 0 4 9 13 17 -1 39 -26 39 -7 0 -11 4 -7 10 3 5 -3 18 -15 30 -11
11 -20 26 -20 34 0 8 -9 18 -20 21 -11 3 -20 11 -20 16 0 6 -4 7 -10 4 -6 -3
-10 1 -10 10 0 10 -5 13 -12 9 -9 -5 -8 -2 1 10 13 15 12 17 -12 12 -19 -3
-24 -1 -20 10 3 9 -2 14 -15 14 -11 0 -22 7 -25 14 -4 10 -1 13 9 9 8 -3 14 1
14 8 0 11 3 11 10 -1 8 -13 10 -13 10 2 0 9 5 20 12 24 7 4 8 3 4 -4 -4 -7 -2
-12 3 -12 6 0 11 6 11 13 0 8 3 7 10 -3 8 -12 10 -12 16 3 5 14 9 15 20 6 9
-7 14 -8 14 -1 0 6 11 9 24 8 16 -2 23 1 20 9 -4 8 4 11 20 10 14 -2 29 2 33
7 4 7 1 8 -7 3 -9 -5 -11 -4 -6 4 6 9 11 9 21 1 9 -7 16 -6 25 5 7 9 19 14 27
11 7 -3 13 1 13 10 0 8 5 12 10 9 6 -4 7 -11 4 -17 -4 -7 -2 -8 4 -4 6 4 9 13
6 21 -4 10 0 12 15 8 13 -3 21 -1 21 7 0 7 8 10 20 7 11 -3 18 -1 14 4 -3 5
-2 9 3 10 43 4 54 7 60 14 5 4 0 5 -9 2 -26 -9 -22 2 5 12 13 5 27 5 34 -1 7
-6 14 -5 19 3 4 8 3 9 -4 5 -7 -4 -12 -3 -12 3 0 5 10 11 23 13 12 2 21 9 19
16 -2 10 3 10 17 2 17 -8 19 -7 16 9 -3 15 1 18 17 13 16 -4 20 -1 16 10 -4 8
-1 15 7 15 7 0 11 -7 8 -16 -3 -12 -2 -11 7 2 6 9 15 15 20 12 5 -3 12 0 16 6
4 8 3 9 -4 5 -7 -4 -12 -2 -12 3 0 10 13 14 26 9 3 -2 10 5 15 15 6 9 17 17
24 17 8 0 15 4 15 10 0 5 7 7 15 4 11 -5 13 -2 8 12 -5 13 -3 16 10 11 12 -4
17 -1 17 11 0 15 2 15 10 2 8 -13 10 -12 10 3 0 10 5 15 10 12 6 -3 13 1 16
10 4 9 13 14 20 11 8 -3 11 0 8 8 -3 7 14 25 41 41 25 16 45 34 45 40 0 17 35
46 45 38 4 -5 5 0 2 9 -3 10 -3 17 1 17 20 -3 32 3 32 16 0 9 7 18 15 21 8 4
12 11 8 18 -4 6 2 4 12 -4 10 -8 16 -10 12 -4 -3 6 5 21 18 34 13 13 22 27 19
31 -3 5 3 9 13 9 14 0 15 2 5 9 -11 6 -8 13 12 28 18 15 22 23 14 31 -8 8 -4
9 13 5 22 -6 23 -5 9 12 -8 10 -10 16 -5 13 6 -3 19 4 30 15 12 11 14 17 5 13
-8 -4 -6 0 4 8 11 9 16 16 11 16 -4 0 2 9 15 20 13 11 18 20 11 20 -7 0 1 12
16 26 15 15 21 21 11 15 -13 -9 -18 -9 -24 1 -4 7 -4 10 0 6 19 -17 52 37 55
90 1 6 8 12 17 12 12 0 14 3 6 13 -12 14 0 41 18 43 21 3 22 4 10 19 -7 9 -8
15 -2 15 6 0 9 8 7 18 -3 21 13 54 24 48 4 -3 8 1 8 9 0 8 -4 12 -9 9 -4 -3
-4 6 1 19 6 14 7 28 3 32 -3 3 1 3 10 0 9 -4 19 -1 24 6 4 7 3 10 -3 6 -6 -4
-17 0 -24 9 -7 8 -8 14 -3 13 24 -4 29 4 28 46 0 25 4 49 9 52 6 3 7 1 3 -5
-5 -8 -1 -10 10 -5 14 5 13 8 -7 19 -17 10 -19 13 -8 14 18 0 35 30 17 30 -7
0 -6 5 2 15 10 12 10 15 0 15 -10 0 -10 4 1 16 10 13 10 17 -2 25 -8 5 -9 9
-4 9 6 0 12 11 13 26 1 18 -2 23 -11 18 -9 -6 -9 -5 0 7 16 20 21 63 13 115
-4 26 -3 41 3 37 5 -3 4 3 -1 14 -7 11 -7 25 -1 35 6 11 6 19 -1 23 -6 4 -8
11 -5 16 4 5 1 9 -6 9 -8 0 -8 4 1 15 9 10 9 15 1 15 -6 0 -11 5 -11 11 0 5 6
7 13 3 9 -6 9 -4 0 7 -17 17 -17 42 0 34 6 -4 1 3 -12 14 -14 13 -18 21 -10
21 11 0 11 2 -1 10 -8 5 -11 10 -6 10 5 0 3 7 -4 15 -9 11 -9 15 -1 15 8 0 9
5 2 19 -6 10 -7 22 -3 26 4 5 1 5 -5 1 -9 -5 -13 0 -13 14 0 12 -4 19 -8 16
-5 -3 -8 5 -7 17 1 12 -5 27 -14 33 -13 10 -13 14 -1 30 8 10 11 15 5 12 -5
-3 -16 0 -23 8 -7 8 -10 14 -6 14 3 0 1 6 -5 13 -6 8 -7 18 -3 22 4 5 0 6 -9
2 -13 -4 -16 -1 -12 14 3 10 0 19 -6 19 -6 0 -11 9 -11 20 0 11 -4 20 -10 20
-5 0 -10 10 -10 23 0 16 -3 18 -9 9 -11 -19 -23 11 -14 36 6 14 4 15 -9 4 -14
-11 -17 -10 -24 10 -4 13 -7 27 -5 32 1 5 -5 4 -13 -3 -12 -10 -14 -9 -9 11 4
18 3 20 -6 8 -9 -12 -11 -11 -11 8 0 15 -6 22 -20 22 -11 0 -19 3 -19 8 4 22
-3 32 -22 32 -16 0 -20 5 -17 18 4 15 0 18 -18 16 -15 -1 -24 3 -24 12 0 8
-11 19 -25 24 -14 5 -25 12 -25 15 0 4 5 3 10 0 6 -3 10 -4 10 -1 0 2 -13 11
-29 19 -22 11 -32 12 -42 3 -7 -6 -9 -6 -6 -1 3 6 2 17 -4 25 -7 13 -9 13 -9
1 0 -11 -4 -10 -13 4 -8 10 -26 19 -42 21 -15 2 -40 15 -55 29 -26 25 -29 26
-39 8 -10 -17 -10 -17 -11 0 0 10 -4 15 -10 12 -6 -3 -10 0 -10 7 0 9 -3 9
-10 -2 -7 -12 -10 -12 -10 -1 0 7 -6 11 -15 8 -8 -4 -17 -1 -21 5 -5 7 -2 8 6
3 9 -5 11 -4 6 4 -6 9 -11 9 -21 1 -10 -8 -15 -8 -21 1 -5 8 -3 10 7 5 8 -4 5
0 -5 8 -11 9 -25 16 -30 15 -6 0 -5 -3 2 -6 6 -2 12 -9 12 -14 0 -5 -10 -4
-22 2 -13 7 -24 10 -25 8 -1 -2 -5 0 -10 4 -4 5 -2 7 6 5 7 -2 16 4 18 12 4
12 3 12 -5 2 -5 -8 -12 -13 -16 -13 -20 3 -26 0 -21 -9 10 -16 -1 -11 -16 7
-10 11 -10 14 -1 9 6 -4 12 -2 12 3 0 14 -6 14 -30 1 -12 -6 -21 -7 -25 0 -3
5 -13 6 -22 3 -9 -4 -21 1 -29 12 -13 18 -14 18 -14 1 0 -12 -5 -16 -16 -12
-9 3 -18 6 -20 6 -3 0 -2 5 2 11 4 8 9 7 16 -2 8 -11 9 -11 5 1 -4 16 -30 20
-63 8 -29 -9 -71 1 -52 13 9 6 9 9 1 9 -7 0 -17 -8 -22 -17 -6 -11 -11 -13
-11 -5 0 10 -5 10 -20 2 -17 -9 -19 -8 -13 7 6 15 4 16 -9 5 -13 -10 -17 -10
-21 0 -4 10 -7 10 -18 -1 -12 -12 -12 -13 0 -6 10 5 12 4 7 -4 -11 -16 -28 -2
-22 18 6 15 5 15 -7 -1 -12 -15 -14 -15 -26 0 -10 14 -11 15 -7 1 2 -9 -2 -16
-10 -16 -7 0 -11 4 -8 9 3 4 -7 8 -23 9 -15 0 -56 1 -91 2 -36 1 -62 -2 -62
-8 0 -7 -3 -7 -8 0 -9 13 -275 13 -284 0 -5 -7 -8 -7 -8 0 0 6 -25 10 -55 10
-30 0 -55 -4 -55 -10 0 -7 -3 -7 -8 0 -4 6 -29 10 -57 10 -27 0 -53 -4 -57
-10 -5 -7 -8 -7 -8 0 0 6 -25 10 -55 10 -30 0 -55 -4 -55 -10 0 -7 -3 -7 -8 0
-4 6 -29 10 -57 10 -27 0 -53 -4 -57 -10 -5 -7 -8 -7 -8 0 0 6 -25 10 -55 10
-30 0 -55 -4 -55 -10 0 -7 -3 -7 -8 0 -4 6 -29 10 -57 10 -27 0 -53 -4 -57
-10 -5 -7 -8 -7 -8 0 0 6 -25 10 -55 10 -30 0 -55 -4 -55 -10 0 -7 -3 -7 -8 0
-4 6 -47 10 -97 10 -49 0 -93 -4 -97 -10 -5 -7 -8 -7 -8 0 0 6 -25 10 -55 10
-30 0 -55 -4 -55 -10 0 -7 -3 -7 -8 0 -4 6 -47 10 -97 10 -49 0 -93 -4 -97
-10 -5 -7 -8 -7 -8 0 0 6 -25 10 -55 10 -30 0 -55 -4 -55 -10 0 -7 -3 -7 -8 0
-4 6 -47 10 -97 10 -49 0 -93 -4 -97 -10 -5 -7 -8 -7 -8 0 0 6 -25 10 -55 10
-30 0 -55 -4 -55 -10 0 -7 -3 -7 -8 0 -4 6 -43 10 -87 10 -44 0 -83 -4 -87
-10 -5 -7 -8 -7 -8 0 0 6 -25 10 -55 10 -37 0 -55 -4 -55 -12 0 -7 -4 -13 -10
-13 -5 0 -7 6 -5 13 4 8 -6 12 -30 12 -19 0 -35 -3 -35 -7 0 -4 -13 -3 -30 2
-16 5 -30 5 -30 1 0 -4 -22 -5 -50 -1 -38 5 -50 3 -50 -7 0 -7 -4 -13 -10 -13
-5 0 -7 6 -5 13 4 8 -6 12 -30 12 -19 0 -35 -3 -35 -7 0 -4 -13 -3 -30 2 -16
5 -30 6 -30 2 0 -4 -18 -7 -40 -7 -22 0 -40 5 -40 10 0 6 -5 3 -10 -5 -5 -8
-10 -10 -10 -4 0 7 -17 8 -50 4 -27 -3 -55 -3 -62 1 -7 4 -16 3 -20 -4 -6 -9
-8 -8 -8 3 0 13 -1 13 -10 0 -7 -11 -10 -11 -10 -2 0 7 -4 11 -8 8 -11 -6 -89
-8 -124 -3 -16 2 -28 1 -28 -4 0 -4 -12 -4 -27 0 -20 5 -32 3 -41 -8 -9 -10
-11 -11 -6 -2 5 10 3 13 -8 8 -9 -3 -20 -1 -26 5 -8 8 -13 7 -18 -6 -6 -15 -7
-15 -20 1 -12 17 -13 16 -9 -5z m4190 -121 c3 -5 1 -12 -5 -16 -5 -3 -10 1
-10 9 0 18 6 21 15 7z m176 -98 c13 -16 12 -17 -3 -4 -10 7 -18 15 -18 17 0 8
8 3 21 -13z m-1198 -358 c-6 18 -5 18 10 6 10 -8 17 -9 17 -3 0 7 10 8 30 2
19 -5 30 -5 30 1 0 6 5 7 10 4 8 -5 7 -12 -2 -23 -11 -14 -9 -14 8 1 11 9 24
14 27 11 4 -4 13 -1 22 6 12 10 16 9 21 -3 3 -9 3 -22 -1 -29 -4 -7 0 -4 9 6
8 10 13 23 9 29 -4 6 -1 7 6 3 7 -5 10 -13 8 -20 -6 -14 45 -15 55 -1 5 6 8 5
8 -4 0 -8 6 -11 17 -7 9 4 20 1 25 -6 8 -10 11 -10 15 0 7 18 24 15 21 -5 -2
-13 4 -18 22 -18 14 -1 30 3 36 7 7 5 14 2 18 -8 5 -12 9 -14 20 -5 10 8 16 8
25 -2 6 -8 8 -17 5 -20 -4 -4 8 -2 26 3 27 8 31 7 26 -7 -5 -13 -4 -13 7 -4
11 9 17 7 28 -6 13 -17 13 -17 -6 -3 -18 14 -19 14 -6 -2 10 -14 17 -15 33 -7
15 8 19 8 14 0 -4 -6 -2 -11 4 -11 6 0 8 -6 4 -12 -4 -7 -4 -10 1 -6 4 4 15 2
23 -5 11 -8 14 -8 9 0 -4 6 -2 15 4 19 8 4 9 3 5 -4 -4 -7 -1 -12 7 -12 8 0
21 -8 28 -17 11 -15 11 -16 -1 -5 -8 6 -19 12 -24 12 -6 0 0 -7 12 -16 12 -8
27 -12 32 -9 6 3 10 -1 10 -10 0 -11 5 -15 15 -12 8 4 17 1 21 -5 4 -7 3 -8
-4 -4 -7 4 -12 2 -12 -3 0 -6 9 -11 21 -11 13 0 18 -4 13 -12 -5 -8 -2 -9 11
-4 16 6 16 4 4 -11 -9 -11 -10 -14 -1 -9 7 4 12 1 12 -8 0 -9 6 -15 13 -13 6
1 11 -6 11 -15 -1 -11 5 -15 19 -12 15 2 18 1 10 -7 -8 -8 -5 -17 11 -33 17
-17 18 -18 2 -6 -20 14 -20 14 -6 -5 8 -11 21 -24 28 -28 6 -4 12 -13 12 -18
0 -6 -4 -7 -10 -4 -5 3 -10 2 -10 -2 0 -5 9 -14 20 -21 11 -7 20 -18 20 -25 0
-8 -4 -7 -10 3 -6 9 -10 10 -10 3 0 -6 5 -15 11 -19 6 -3 9 -17 7 -29 -4 -16
-1 -22 8 -18 9 3 12 -4 9 -26 -2 -18 -1 -29 4 -27 9 6 8 -31 -2 -40 -3 -4 -2
-14 3 -23 5 -10 5 -23 0 -31 -5 -8 -4 -22 2 -33 7 -14 7 -17 -1 -13 -6 4 -11
2 -11 -3 0 -6 6 -11 13 -11 7 0 8 -3 2 -8 -5 -4 -10 -29 -10 -56 0 -29 -5 -50
-12 -53 -7 -3 -10 -9 -7 -14 3 -5 -1 -9 -8 -9 -10 0 -9 -3 1 -9 12 -8 12 -12
2 -25 -7 -9 -18 -13 -24 -9 -6 3 -7 1 -3 -6 4 -6 11 -9 15 -7 3 3 7 -4 7 -14
0 -10 -4 -16 -8 -14 -4 3 -8 0 -8 -6 0 -6 -5 -8 -12 -4 -7 4 -8 3 -4 -5 4 -6
13 -8 19 -4 7 4 6 0 -2 -10 -7 -9 -10 -17 -5 -17 5 0 1 -5 -10 -11 -15 -9 -16
-13 -5 -20 11 -7 10 -9 -4 -9 -10 0 -15 -5 -12 -10 4 -6 12 -7 18 -3 7 3 4 -3
-6 -14 -9 -11 -14 -24 -10 -28 5 -5 0 -4 -9 3 -14 12 -16 10 -11 -9 5 -17 3
-20 -8 -14 -11 7 -11 5 1 -10 12 -15 12 -17 1 -10 -11 6 -13 4 -8 -8 3 -9 1
-19 -5 -23 -7 -4 -8 -3 -4 4 4 7 2 12 -3 12 -6 0 -11 -11 -11 -25 0 -14 -5
-25 -11 -25 -6 0 -8 -7 -5 -16 6 -15 4 -15 -11 -3 -10 7 -15 10 -11 5 8 -10
-11 -66 -23 -66 -5 0 -9 -6 -9 -13 0 -8 -10 -22 -22 -33 -23 -19 -23 -19 -5 2
9 11 17 24 17 29 0 14 -37 -39 -41 -59 -2 -11 -13 -20 -23 -22 -22 -3 -37 -24
-28 -39 3 -5 -3 -3 -13 5 -10 8 -16 10 -12 3 9 -14 -26 -36 -38 -25 -5 4 -5 1
-1 -6 4 -7 12 -9 18 -6 7 4 8 2 4 -5 -4 -6 -12 -9 -17 -6 -5 4 -9 1 -9 -5 0
-6 -4 -9 -9 -5 -5 3 -12 -4 -16 -15 -3 -11 -11 -20 -17 -20 -6 0 -5 6 3 16 7
9 -3 6 -24 -8 -20 -13 -34 -29 -32 -36 3 -7 1 -11 -4 -8 -5 3 -14 -1 -21 -9
-10 -12 -17 -12 -34 -3 -20 11 -20 10 -6 -7 9 -11 10 -16 3 -11 -7 4 -13 2
-13 -3 0 -6 -4 -11 -10 -11 -5 0 -7 8 -4 18 4 12 1 10 -8 -4 -7 -12 -19 -19
-27 -16 -8 2 -11 0 -7 -6 7 -11 -21 -25 -35 -16 -5 3 -9 2 -9 -3 0 -16 -47
-30 -66 -20 -16 9 -17 8 -7 -4 9 -11 7 -14 -13 -15 -15 -1 -22 2 -18 10 3 6
-4 0 -16 -14 -19 -21 -21 -22 -16 -5 5 18 5 18 -6 4 -7 -9 -25 -15 -41 -15
-20 1 -26 -2 -22 -13 4 -11 3 -12 -10 -1 -14 12 -20 7 -15 -15 1 -5 -4 -5 -10
2 -8 7 -22 8 -41 3 -16 -5 -29 -6 -29 -3 0 3 -6 0 -14 -6 -9 -8 -16 -8 -20 -2
-4 6 -13 8 -21 5 -8 -4 -12 -10 -9 -15 3 -5 -2 -6 -10 -3 -9 3 -13 11 -9 17 3
6 1 7 -5 3 -7 -4 -12 -14 -12 -22 0 -12 -2 -12 -14 -2 -8 7 -11 18 -8 23 2 6
-1 5 -8 -2 -7 -6 -18 -10 -24 -9 -6 2 -8 1 -3 -1 4 -3 7 -8 7 -12 0 -9 -37 -7
-46 2 -4 4 -12 7 -18 7 -6 0 -4 -5 4 -10 12 -8 10 -10 -8 -10 -16 0 -21 4 -16
13 4 6 -2 4 -13 -6 -11 -9 -23 -14 -26 -10 -11 10 -57 10 -57 -1 0 -5 -9 -1
-20 9 -17 15 -20 16 -15 3 5 -11 1 -16 -12 -15 -10 1 -21 7 -25 12 -5 6 -8 5
-8 -3 0 -7 -5 -10 -11 -7 -6 4 -26 8 -45 9 -24 1 -34 -3 -35 -14 0 -10 -3 -9
-9 5 -5 11 -9 15 -9 9 -1 -7 -16 -9 -46 -4 -30 5 -45 3 -45 -4 0 -6 -5 -4 -10
4 -8 12 -10 12 -11 -5 l0 -20 -9 20 c-5 11 -9 14 -9 7 -1 -7 -6 -10 -12 -6 -7
4 -41 8 -76 8 -51 2 -62 -1 -58 -13 4 -10 2 -11 -8 -3 -20 17 -73 18 -91 3
-13 -11 -17 -11 -22 3 -6 15 -8 15 -20 -1 -10 -15 -15 -16 -26 -5 -11 11 -10
12 5 7 9 -4 17 -3 17 2 0 4 -27 8 -59 8 -33 0 -57 -3 -55 -7 2 -3 0 -9 -5 -12
-5 -4 -13 -1 -17 5 -5 8 -3 9 7 4 8 -5 11 -4 6 1 -12 12 -30 12 -40 -1 -6 -7
-10 -6 -14 3 -4 10 -9 9 -19 -5 -9 -12 -12 -13 -9 -3 4 12 -4 15 -35 15 -31 0
-39 -3 -35 -14 4 -10 2 -11 -7 -4 -7 6 -23 13 -36 16 -18 4 -22 2 -18 -9 4
-10 2 -12 -7 -7 -6 4 -15 8 -18 8 -10 0 -41 35 -30 35 5 0 15 -8 20 -17 6 -10
11 -13 11 -6 0 6 -4 14 -9 17 -5 3 -8 17 -8 31 0 15 4 22 11 18 6 -4 5 0 -2 9
-10 13 -10 17 0 20 10 4 10 9 -2 23 -9 11 -10 16 -2 11 7 -4 12 -1 12 9 0 9 4
14 9 11 9 -6 7 37 -4 53 -3 6 0 14 9 17 19 7 28 32 14 40 -6 4 -8 3 -4 -4 3
-6 2 -13 -3 -16 -8 -5 -8 15 -1 34 1 3 2 8 1 13 0 4 6 7 15 7 11 0 13 6 9 20
-3 10 -1 28 5 40 6 11 7 20 2 20 -4 0 -8 9 -8 19 0 15 4 17 13 10 9 -8 10 -4
3 20 -5 17 -5 30 -2 30 18 -3 24 2 15 14 -9 12 7 81 18 75 2 -2 1 1 -3 6 -9
12 2 37 13 30 5 -3 6 -10 3 -16 -4 -7 -2 -8 5 -4 9 6 9 11 1 21 -13 16 -8 54
11 67 12 8 11 9 -2 5 -9 -3 -16 1 -16 9 0 8 6 14 14 14 7 0 13 5 13 11 0 5 -4
7 -10 4 -5 -3 -10 1 -10 9 0 8 5 18 12 22 7 5 8 2 3 -7 -7 -12 -5 -12 6 -1 11
10 11 14 1 21 -7 4 -10 15 -6 24 3 9 9 15 13 12 4 -2 6 8 3 24 -2 17 2 32 12
40 12 11 14 17 5 27 -9 11 -8 14 1 14 9 0 9 4 -1 17 -12 14 -12 16 0 8 11 -6
13 -4 8 8 -4 10 -1 17 6 18 9 0 9 2 0 6 -9 3 -7 11 7 26 14 14 17 24 10 31
-12 12 -14 29 -2 23 4 -3 8 6 8 19 1 15 -2 22 -10 17 -6 -3 -6 -1 2 8 6 7 12
21 12 32 0 10 5 15 10 12 6 -3 10 -1 10 4 0 6 -6 11 -12 11 -9 0 -10 3 -2 8
16 10 24 62 10 62 -6 0 -5 4 3 9 18 11 24 41 9 41 -6 0 -3 9 7 20 10 11 15 20
10 20 -4 0 -1 7 6 17 12 14 12 17 0 21 -11 4 -11 6 0 13 12 7 11 9 -1 9 -10 0
-8 5 7 15 16 11 20 22 17 41 -3 14 -1 23 3 21 4 -3 8 22 8 54 0 50 2 57 13 42
15 -20 16 -9 2 18 -7 12 -7 19 -1 19 6 0 8 7 4 16 -3 9 0 20 8 25 11 7 11 9 1
9 -7 0 -10 5 -7 10 4 6 12 8 18 4 7 -3 3 2 -7 10 -17 14 -17 16 -4 16 9 0 20
5 24 12 4 7 3 8 -4 4 -16 -10 -15 7 1 23 6 8 7 11 2 8 -6 -3 -11 3 -11 13 0
15 3 16 14 8 10 -9 12 -8 10 2 -2 7 3 15 11 18 9 3 11 0 6 -8 -5 -9 -4 -11 3
-6 21 12 51 15 58 5 4 -6 11 -6 20 2 11 9 14 8 14 -2 0 -9 3 -10 8 -4 9 12
143 14 135 2 -3 -5 3 -4 13 1 11 6 24 10 29 10 6 0 18 -4 29 -10 11 -6 16 -6
12 0 -6 11 64 9 82 -2 6 -3 13 -2 17 4 4 7 13 6 27 -1 15 -8 19 -8 14 0 -4 6
0 11 9 11 9 0 13 -5 9 -11 -4 -8 -1 -8 12 -1 11 6 21 11 24 13 3 1 16 -3 29
-10 13 -7 21 -9 17 -3 -6 11 64 9 82 -2 6 -3 13 -2 17 4 4 7 13 6 27 -1 15 -8
19 -8 14 0 -4 6 0 11 9 11 9 0 13 -5 9 -11 -4 -8 -1 -8 12 -1 24 13 27 13 64
2 17 -5 28 -5 25 -1 -2 5 6 9 20 9 14 0 22 -5 18 -11 -3 -6 1 -6 13 1 11 6 25
7 35 1 12 -6 19 -4 24 9 5 15 9 14 26 -8 15 -20 18 -21 12 -5z m387 -29 c0 -3
-4 -8 -10 -11 -5 -3 -10 -1 -10 4 0 6 5 11 10 11 6 0 10 -2 10 -4z m1225 -184
c-3 -3 -11 0 -18 7 -9 10 -8 11 6 5 10 -3 15 -9 12 -12z m-2679 -119 c-2 -9
-9 -19 -17 -21 -11 -3 -11 -1 1 7 8 6 11 11 7 11 -5 0 -5 5 -2 10 9 15 14 12
11 -7z m-85 -397 c14 8 11 -2 -4 -14 -10 -8 -13 -6 -14 11 0 12 1 16 4 9 3 -6
9 -10 14 -6z m-691 -146 c0 -5 -5 -10 -11 -10 -5 0 -7 5 -4 10 3 6 8 10 11 10
2 0 4 -4 4 -10z m2330 -624 c0 -3 -4 -8 -10 -11 -5 -3 -10 -1 -10 4 0 6 5 11
10 11 6 0 10 -2 10 -4z m-4310 -26 c0 -5 -2 -10 -4 -10 -3 0 -8 5 -11 10 -3 6
-1 10 4 10 6 0 11 -4 11 -10z m5134 -19 c3 -4 -3 -16 -13 -25 -15 -14 -21 -15
-27 -4 -4 7 -4 10 1 6 10 -10 37 11 29 23 -3 5 -3 9 0 9 3 0 7 -4 10 -9z
m-1469 -161 c3 -5 1 -10 -4 -10 -6 0 -11 5 -11 10 0 6 2 10 4 10 3 0 8 -4 11
-10z m-855 -16 c0 -8 -19 -13 -24 -6 -3 5 1 9 9 9 8 0 15 -2 15 -3z m-1270
-1214 c0 -5 -5 -10 -11 -10 -5 0 -7 5 -4 10 3 6 8 10 11 10 2 0 4 -4 4 -10z
m3054 -236 c3 -8 2 -12 -4 -9 -6 3 -10 10 -10 16 0 14 7 11 14 -7z m33 -69 c0
-8 -4 -12 -9 -9 -4 3 -8 9 -8 15 0 5 4 9 8 9 5 0 9 -7 9 -15z m188 -425 c3 -5
1 -10 -4 -10 -6 0 -11 5 -11 10 0 6 2 10 4 10 3 0 8 -4 11 -10z m605 -386 c0
-8 -19 -13 -24 -6 -3 5 1 9 9 9 8 0 15 -2 15 -3z m-1220 -94 c0 -5 -2 -10 -4
-10 -3 0 -8 5 -11 10 -3 6 -1 10 4 10 6 0 11 -4 11 -10z m-4085 -79 c3 -5 2
-12 -3 -15 -5 -3 -9 1 -9 9 0 17 3 19 12 6z m4199 -107 c3 -8 2 -12 -4 -9 -6
3 -10 10 -10 16 0 14 7 11 14 -7z"/>
<path d="M5486 4675 c-9 -26 -7 -32 5 -12 6 10 9 21 6 23 -2 3 -7 -2 -11 -11z"/>
<path d="M5220 4111 c0 -6 4 -13 10 -16 6 -3 7 1 4 9 -7 18 -14 21 -14 7z"/>
<path d="M4806 3838 c3 -5 10 -6 15 -3 13 9 11 12 -6 12 -8 0 -12 -4 -9 -9z"/>
<path d="M3640 3729 c0 -5 5 -7 10 -4 6 3 10 8 10 11 0 2 -4 4 -10 4 -5 0 -10
-5 -10 -11z"/>
<path d="M1565 4891 c-3 -5 -2 -12 3 -15 5 -3 9 1 9 9 0 17 -3 19 -12 6z"/>
<path d="M909 4843 c-13 -16 -12 -17 4 -4 9 7 17 15 17 17 0 8 -8 3 -21 -13z"/>
<path d="M889 4768 c-5 -18 -6 -38 -1 -34 7 8 12 36 6 36 -2 0 -4 -1 -5 -2z"/>
<path d="M6165 4380 c-3 -6 1 -7 9 -4 18 7 21 14 7 14 -6 0 -13 -4 -16 -10z"/>
<path d="M786 4358 c3 -5 10 -6 15 -3 13 9 11 12 -6 12 -8 0 -12 -4 -9 -9z"/>
<path d="M1245 3890 c-16 -17 -16 -20 -3 -15 9 4 19 13 22 21 7 19 2 18 -19
-6z"/>
<path d="M5756 3742 c-3 -5 1 -9 9 -9 8 0 12 4 9 9 -3 4 -7 8 -9 8 -2 0 -6 -4
-9 -8z"/>
<path d="M2906 2195 c4 -8 8 -15 10 -15 2 0 4 7 4 15 0 8 -4 15 -10 15 -5 0
-7 -7 -4 -15z"/>
<path d="M2847 1955 c-4 -8 -2 -17 3 -20 6 -4 10 3 10 14 0 25 -6 27 -13 6z"/>
<path d="M1055 1540 c-3 -5 -1 -10 4 -10 6 0 11 5 11 10 0 6 -2 10 -4 10 -3 0
-8 -4 -11 -10z"/>
<path d="M843 1165 c0 -8 4 -12 9 -9 5 3 6 10 3 15 -9 13 -12 11 -12 -6z"/>
<path d="M5175 990 c-3 -5 -1 -10 4 -10 6 0 11 5 11 10 0 6 -2 10 -4 10 -3 0
-8 -4 -11 -10z"/>
</g>
</svg>
